<?xml version="1.0" encoding="utf-8"?>
<!-- Generator: Adobe Illustrator 24.2.0, SVG Export Plug-In . SVG Version: 6.00 Build 0)  -->
<svg version="1.1" id="Ebene_1" xmlns="http://www.w3.org/2000/svg" xmlns:xlink="http://www.w3.org/1999/xlink" x="0px" y="0px"
	 viewBox="0 0 85.04 85.04" style="enable-background:new 0 0 85.04 85.04;" xml:space="preserve">
<style type="text/css">
	.st0{fill:#F2BC49;}
	.st1{fill:#DF5F3C;}
	.st2{fill:url(#SVGID_1_);}
	.st3{fill:url(#SVGID_2_);}
	.st4{fill:none;}
	.st5{fill:#FFC34B;}
	.st6{fill:url(#SVGID_3_);}
	.st7{fill:#4E90C6;}
	.st8{fill:#FFFFFF;}
	.st9{fill:#DD5734;}
	.st10{fill:#FFFEFD;}
	.st11{fill:#D1D1D1;}
	.st12{fill:#A0A0A0;}
	.st13{fill:#190C00;}
	.st14{fill:#8C4A18;}
	.st15{fill:#DD771B;}
	.st16{fill:url(#SVGID_4_);}
	.st17{fill:url(#SVGID_5_);}
	.st18{fill:url(#SVGID_6_);}
	.st19{fill:url(#SVGID_7_);}
	.st20{fill:url(#SVGID_8_);}
	.st21{fill:url(#SVGID_9_);}
	.st22{fill:url(#SVGID_10_);}
	.st23{fill:#8E3903;}
	.st24{fill:#BC2313;}
	.st25{fill:url(#SVGID_11_);}
	.st26{fill:#7D4314;}
	.st27{fill:#939392;}
	.st28{fill:#CE6E16;}
	.st29{fill:#2D1401;}
	.st30{fill:#AEAEAE;}
	.st31{fill:#5CAA7C;}
	.st32{fill:url(#SVGID_12_);}
	.st33{fill:url(#SVGID_13_);}
	.st34{fill:url(#SVGID_14_);}
	.st35{fill:url(#SVGID_15_);}
	.st36{fill:url(#SVGID_16_);}
	.st37{fill:#9B6131;}
	.st38{fill:url(#SVGID_17_);}
	.st39{fill:none;stroke:#FFFFFF;stroke-width:2;stroke-miterlimit:10;}
	.st40{fill:url(#SVGID_18_);}
	.st41{fill:url(#SVGID_19_);}
	.st42{fill:url(#SVGID_20_);}
	.st43{fill:url(#SVGID_21_);}
	.st44{fill:url(#SVGID_22_);}
	.st45{fill:url(#SVGID_23_);}
	.st46{fill:url(#SVGID_24_);}
	.st47{fill:url(#SVGID_25_);}
	.st48{fill:none;stroke:#FFFFFF;stroke-miterlimit:10;}
	.st49{fill:none;stroke:#FFFFFF;stroke-miterlimit:10;stroke-dasharray:0.9982,0.9982;}
	.st50{fill:url(#SVGID_26_);}
	.st51{fill:url(#SVGID_27_);}
	.st52{fill:url(#SVGID_28_);}
	.st53{fill:url(#SVGID_29_);}
	.st54{fill:url(#SVGID_30_);}
	.st55{fill:url(#SVGID_31_);}
	.st56{fill:url(#SVGID_32_);}
	.st57{fill:url(#SVGID_33_);}
	.st58{fill:#1AA2E3;}
	.st59{fill:#1BA3E3;}
	.st60{fill:#1CA3E3;}
	.st61{fill:#1DA4E3;}
	.st62{fill:#1EA5E3;}
	.st63{fill:#1FA5E4;}
	.st64{fill:#20A6E4;}
	.st65{fill:#21A6E4;}
	.st66{fill:#22A7E4;}
	.st67{fill:#23A8E4;}
	.st68{fill:#24A8E4;}
	.st69{fill:#25A9E4;}
	.st70{fill:#26AAE4;}
	.st71{fill:#27AAE4;}
	.st72{fill:#28ABE5;}
	.st73{fill:#29ACE5;}
	.st74{fill:#2AACE5;}
	.st75{fill:#2BADE5;}
	.st76{fill:#2CADE5;}
	.st77{fill:#2DAEE5;}
	.st78{fill:#2EAFE5;}
	.st79{fill:#2FAFE5;}
	.st80{fill:#30B0E5;}
	.st81{fill:#31B1E6;}
	.st82{fill:#32B1E6;}
	.st83{fill:#33B2E6;}
	.st84{fill:#34B2E6;}
	.st85{fill:#35B3E6;}
	.st86{fill:#36B4E6;}
	.st87{fill:#37B4E6;}
	.st88{fill:#38B5E6;}
	.st89{fill:#39B6E6;}
	.st90{fill:#3AB6E6;}
	.st91{fill:#3BB7E7;}
	.st92{fill:#3CB8E7;}
	.st93{fill:#3DB8E7;}
	.st94{fill:#3EB9E7;}
	.st95{fill:#3FB9E7;}
	.st96{fill:#40BAE7;}
	.st97{fill:#41BBE7;}
	.st98{fill:#42BBE7;}
	.st99{fill:#43BCE7;}
	.st100{fill:#44BDE8;}
	.st101{fill:#45BDE8;}
	.st102{fill:#46BEE8;}
	.st103{fill:#47BFE8;}
	.st104{fill:#48BFE8;}
	.st105{fill:#49C0E8;}
	.st106{fill:#4AC0E8;}
	.st107{fill:#4BC1E8;}
	.st108{fill:#4CC2E8;}
	.st109{fill:#4CC2E9;}
	.st110{fill:#4DC3E9;}
	.st111{fill:#4EC4E9;}
	.st112{fill:#4FC4E9;}
	.st113{fill:#50C5E9;}
	.st114{fill:#51C5E9;}
	.st115{fill:#52C6E9;}
	.st116{fill:#53C7E9;}
	.st117{fill:#54C7E9;}
	.st118{fill:#55C8EA;}
	.st119{fill:#56C9EA;}
	.st120{fill:#57C9EA;}
	.st121{fill:#58CAEA;}
	.st122{fill:#59CBEA;}
	.st123{fill:#5ACBEA;}
	.st124{fill:#5BCCEA;}
	.st125{fill:#5CCCEA;}
	.st126{fill:#5DCDEA;}
	.st127{fill:#5ECEEB;}
	.st128{fill:#5FCEEB;}
	.st129{fill:#60CFEB;}
	.st130{fill:#61D0EB;}
	.st131{fill:#62D0EB;}
	.st132{fill:#63D1EB;}
	.st133{fill:#64D2EB;}
	.st134{fill:#65D2EB;}
	.st135{fill:#66D3EB;}
	.st136{fill:#67D3EB;}
	.st137{fill:#68D4EC;}
	.st138{fill:#69D5EC;}
	.st139{fill:#6AD5EC;}
	.st140{fill:#6BD6EC;}
	.st141{fill:#6CD7EC;}
	.st142{fill:#6DD7EC;}
	.st143{fill:#6ED8EC;}
	.st144{fill:#6FD8EC;}
	.st145{fill:#70D9EC;}
	.st146{fill:#71DAED;}
	.st147{fill:#72DAED;}
	.st148{fill:#73DBED;}
	.st149{fill:#74DCED;}
	.st150{fill:#75DCED;}
	.st151{fill:#76DDED;}
	.st152{fill:#77DEED;}
	.st153{fill:#78DEED;}
	.st154{fill:#79DFED;}
	.st155{fill:#7ADFEE;}
	.st156{fill:#7BE0EE;}
	.st157{fill:#7CE1EE;}
	.st158{fill:#7DE1EE;}
	.st159{fill:#7EE2EE;}
	.st160{fill:#7FE2EE;}
	.st161{fill:#80E2ED;}
	.st162{fill:#81E2ED;}
	.st163{fill:#82E3EC;}
	.st164{fill:#83E3EC;}
	.st165{fill:#84E3EC;}
	.st166{fill:#85E3EB;}
	.st167{fill:#86E3EB;}
	.st168{fill:#87E3EA;}
	.st169{fill:#88E3EA;}
	.st170{fill:#89E4EA;}
	.st171{fill:#8AE4E9;}
	.st172{fill:#8BE4E9;}
	.st173{fill:#8CE4E8;}
	.st174{fill:#8DE4E8;}
	.st175{fill:#8EE4E7;}
	.st176{fill:#8FE5E7;}
	.st177{fill:#90E5E7;}
	.st178{fill:#91E5E6;}
	.st179{fill:#92E5E6;}
	.st180{fill:#93E5E5;}
	.st181{fill:#94E5E5;}
	.st182{fill:#95E5E5;}
	.st183{fill:#96E6E4;}
	.st184{fill:#97E6E4;}
	.st185{fill:#98E6E3;}
	.st186{fill:#99E6E3;}
	.st187{fill:#9AE6E3;}
	.st188{fill:#9BE6E2;}
	.st189{fill:#9CE6E2;}
	.st190{fill:#9DE7E1;}
	.st191{fill:#9EE7E1;}
	.st192{fill:#9FE7E1;}
	.st193{fill:#A0E7E0;}
	.st194{fill:#A1E7E0;}
	.st195{fill:#A2E7DF;}
	.st196{fill:#A3E7DF;}
	.st197{fill:#A4E8DE;}
	.st198{fill:#A5E8DE;}
	.st199{fill:#A6E8DE;}
	.st200{fill:#A7E8DD;}
	.st201{fill:#A8E8DD;}
	.st202{fill:#A9E8DC;}
	.st203{fill:#AAE9DC;}
	.st204{fill:#ABE9DC;}
	.st205{fill:#ACE9DB;}
	.st206{fill:#ADE9DB;}
	.st207{fill:#AEE9DA;}
	.st208{fill:#AFE9DA;}
	.st209{fill:#B0E9DA;}
	.st210{fill:#B1EAD9;}
	.st211{fill:#B2EAD9;}
	.st212{fill:#B3EAD8;}
	.st213{fill:#B4EAD8;}
	.st214{fill:#B5EAD8;}
	.st215{fill:#B6EAD7;}
	.st216{fill:#B7EAD7;}
	.st217{fill:#B7EBD6;}
	.st218{fill:#B8EBD6;}
	.st219{fill:#B9EBD5;}
	.st220{fill:#BAEBD5;}
	.st221{fill:#BBEBD5;}
	.st222{fill:#BCEBD4;}
	.st223{fill:#BDEBD4;}
	.st224{fill:#BEECD3;}
	.st225{fill:#BFECD3;}
	.st226{fill:#C0ECD3;}
	.st227{fill:#C1ECD2;}
	.st228{fill:#C2ECD2;}
	.st229{fill:#C3ECD1;}
	.st230{fill:#C4ECD1;}
	.st231{fill:#C5EDD1;}
	.st232{fill:#C6EDD0;}
	.st233{fill:#C7EDD0;}
	.st234{fill:#C8EDCF;}
	.st235{fill:#C9EDCF;}
	.st236{fill:#CAEDCF;}
	.st237{fill:#CBEECE;}
	.st238{fill:#CCEECE;}
	.st239{fill:#CDEECD;}
	.st240{fill:#CEEECD;}
	.st241{fill:#CFEECC;}
	.st242{fill:#D0EECC;}
	.st243{fill:#D1EECC;}
	.st244{fill:#D2EFCB;}
	.st245{fill:#D3EFCB;}
	.st246{fill:#D4EFCA;}
	.st247{fill:#D5EFCA;}
	.st248{fill:#D6EFCA;}
	.st249{fill:#D7EFC9;}
	.st250{fill:#D8EFC9;}
	.st251{fill:#D9F0C8;}
	.st252{fill:#DAF0C8;}
	.st253{fill:#DBF0C8;}
	.st254{fill:#DCF0C7;}
	.st255{fill:#DDF0C7;}
	.st256{fill:#DEF0C6;}
	.st257{fill:#DFF0C6;}
	.st258{fill:#E0F1C6;}
	.st259{fill:#E1F1C5;}
	.st260{fill:#E2F1C5;}
	.st261{fill:#E3F1C4;}
	.st262{fill:#E4F1C4;}
	.st263{fill:#E5F1C3;}
	.st264{fill:#E6F2C3;}
	.st265{fill:#E7F2C3;}
	.st266{fill:#E8F2C2;}
	.st267{fill:#E9F2C2;}
	.st268{fill:#EAF2C1;}
	.st269{fill:#EBF2C1;}
	.st270{fill:#ECF2C1;}
	.st271{fill:#EDF3C0;}
	.st272{fill:#EEF3C0;}
	.st273{fill:#EFF3BF;}
	.st274{fill:#F0F3BF;}
	.st275{fill:#F0F3BE;}
	.st276{fill:#F0F3BD;}
	.st277{fill:#F0F3BC;}
	.st278{fill:#F0F2BB;}
	.st279{fill:#F0F2BA;}
	.st280{fill:#F0F2B9;}
	.st281{fill:#F0F2B8;}
	.st282{fill:#F0F2B7;}
	.st283{fill:#F0F2B6;}
	.st284{fill:#F0F2B5;}
	.st285{fill:#F0F1B4;}
	.st286{fill:#F0F1B3;}
	.st287{fill:#F1F1B2;}
	.st288{fill:#F1F1B1;}
	.st289{fill:#F1F1B0;}
	.st290{fill:#F1F1AF;}
	.st291{fill:#F1F1AE;}
	.st292{fill:#F1F0AD;}
	.st293{fill:#F1F0AC;}
	.st294{fill:#F1F0AB;}
	.st295{fill:#F1F0AA;}
	.st296{fill:#F1F0A9;}
	.st297{fill:#F1F0A8;}
	.st298{fill:#F1EFA7;}
	.st299{fill:#F1EFA6;}
	.st300{fill:#F1EFA5;}
	.st301{fill:#F1EFA4;}
	.st302{fill:#F1EFA3;}
	.st303{fill:#F1EFA2;}
	.st304{fill:#F1EFA1;}
	.st305{fill:#F1EEA0;}
	.st306{fill:#F1EE9F;}
	.st307{fill:#F1EE9E;}
	.st308{fill:#F1EE9D;}
	.st309{fill:#F1EE9C;}
	.st310{fill:#F1EE9B;}
	.st311{fill:#F1EE9A;}
	.st312{fill:#F2ED99;}
	.st313{fill:#F2ED98;}
	.st314{fill:#F2ED97;}
	.st315{fill:#F2ED96;}
	.st316{fill:#F2ED95;}
	.st317{fill:#F2ED94;}
	.st318{fill:#F2ED93;}
	.st319{fill:#F2EC92;}
	.st320{fill:#F2EC91;}
	.st321{fill:#F2EC90;}
	.st322{fill:#F2EC8F;}
	.st323{fill:#F2EC8E;}
	.st324{fill:#F2EC8D;}
	.st325{fill:#F2EC8C;}
	.st326{fill:#F2EB8B;}
	.st327{fill:#F2EB8A;}
	.st328{fill:#F2EB89;}
	.st329{fill:#F2EB88;}
	.st330{fill:#F2EB87;}
	.st331{fill:#F2EB86;}
	.st332{fill:#F2EA85;}
	.st333{fill:#F2EA84;}
	.st334{fill:#F2EA83;}
	.st335{fill:#F2EA82;}
	.st336{fill:#F2EA81;}
	.st337{fill:#F3EA80;}
	.st338{fill:#F3EA7F;}
	.st339{fill:#F3E97E;}
	.st340{fill:#F3E97D;}
	.st341{fill:#F3E97C;}
	.st342{fill:#F3E97B;}
	.st343{fill:#F3E97A;}
	.st344{fill:#F3E979;}
	.st345{fill:#F3E978;}
	.st346{fill:#F3E877;}
	.st347{fill:#F3E876;}
	.st348{fill:#F3E875;}
	.st349{fill:#F3E874;}
	.st350{fill:#F3E873;}
	.st351{fill:#F3E872;}
	.st352{fill:#F3E871;}
	.st353{fill:#F3E770;}
	.st354{fill:#F3E76F;}
	.st355{fill:#F3E76E;}
	.st356{fill:#F3E76D;}
	.st357{fill:#F3E76C;}
	.st358{fill:#F3E76B;}
	.st359{fill:#F3E76A;}
	.st360{fill:#F3E669;}
	.st361{fill:#F3E668;}
	.st362{fill:#F4E667;}
	.st363{fill:#F4E666;}
	.st364{fill:#F4E665;}
	.st365{fill:#F4E664;}
	.st366{fill:#F4E663;}
	.st367{fill:#F4E562;}
	.st368{fill:#F4E561;}
	.st369{fill:#F4E560;}
	.st370{fill:#F4E55F;}
	.st371{fill:#F4E55E;}
	.st372{fill:#F4E55D;}
	.st373{fill:#F4E45C;}
	.st374{fill:#F4E45B;}
	.st375{fill:#F4E45A;}
	.st376{fill:#F4E459;}
	.st377{fill:#F4E458;}
	.st378{fill:#F4E457;}
	.st379{fill:#F4E456;}
	.st380{fill:#F4E355;}
	.st381{fill:#F4E354;}
	.st382{fill:#F4E353;}
	.st383{fill:#F4E352;}
	.st384{fill:#F4E351;}
	.st385{fill:#F4E350;}
	.st386{fill:#F4E34F;}
	.st387{fill:#F5E24E;}
	.st388{fill:#F5E24D;}
	.st389{fill:#F5E24C;}
	.st390{fill:#F5E24B;}
	.st391{fill:#F5E24A;}
	.st392{fill:#F5E249;}
	.st393{fill:#F5E248;}
	.st394{fill:#F5E147;}
	.st395{fill:#F5E146;}
	.st396{fill:#F5E145;}
	.st397{fill:#F5E144;}
	.st398{fill:#F5E143;}
	.st399{fill:#F5E142;}
	.st400{fill:#F5E141;}
	.st401{fill:#F5E040;}
	.st402{fill:#F5E03F;}
	.st403{fill:#F5E03E;}
	.st404{fill:#F5E03D;}
	.st405{fill:#F5E03C;}
	.st406{fill:#F5E03B;}
	.st407{fill:#F5DF3A;}
	.st408{fill:#F5DF39;}
	.st409{fill:#F5DF38;}
	.st410{fill:#F5DF37;}
	.st411{fill:#F5DF36;}
	.st412{fill:#F6DF35;}
	.st413{fill:#F6DF34;}
	.st414{fill:#F6DE33;}
	.st415{fill:#F6DE32;}
	.st416{fill:#F6DE31;}
	.st417{fill:#F6DE30;}
	.st418{fill:#F6DE2F;}
	.st419{fill:#F6DE2E;}
	.st420{fill:#F6DE2D;}
	.st421{fill:#F6DD2C;}
	.st422{fill:#F6DD2B;}
	.st423{fill:#F6DD2A;}
	.st424{fill:#F6DD29;}
	.st425{fill:#F6DC29;}
	.st426{fill:#F6DB29;}
	.st427{fill:#F6DA29;}
	.st428{fill:#F6D929;}
	.st429{fill:#F6D829;}
	.st430{fill:#F6D729;}
	.st431{fill:#F6D629;}
	.st432{fill:#F6D529;}
	.st433{fill:#F6D428;}
	.st434{fill:#F6D328;}
	.st435{fill:#F6D228;}
	.st436{fill:#F6D128;}
	.st437{fill:#F6D028;}
	.st438{fill:#F6CF28;}
	.st439{fill:#F6CE28;}
	.st440{fill:#F6CD28;}
	.st441{fill:#F6CC28;}
	.st442{fill:#F6CB28;}
	.st443{fill:#F6CA28;}
	.st444{fill:#F6C928;}
	.st445{fill:#F6C828;}
	.st446{fill:#F6C728;}
	.st447{fill:#F6C628;}
	.st448{fill:#F6C528;}
	.st449{fill:#F6C428;}
	.st450{fill:#F6C327;}
	.st451{fill:#F6C227;}
	.st452{fill:#F6C127;}
	.st453{fill:#F6C027;}
	.st454{fill:#F5BF27;}
	.st455{fill:#F5BE27;}
	.st456{fill:#F5BD27;}
	.st457{fill:#F5BC27;}
	.st458{fill:#F5BB27;}
	.st459{fill:#F5BA27;}
	.st460{fill:#F5B927;}
	.st461{fill:#F5B827;}
	.st462{fill:#F5B727;}
	.st463{fill:#F5B627;}
	.st464{fill:#F5B527;}
	.st465{fill:#F5B427;}
	.st466{fill:#F5B327;}
	.st467{fill:#F5B226;}
	.st468{fill:#F5B126;}
	.st469{fill:#F5B026;}
	.st470{fill:#F5AF26;}
	.st471{fill:#F5AE26;}
	.st472{fill:#F5AD26;}
	.st473{fill:#F5AC26;}
	.st474{fill:#F5AB26;}
	.st475{fill:#F5AA26;}
	.st476{fill:#F5A926;}
	.st477{fill:#F5A826;}
	.st478{fill:#F5A726;}
	.st479{fill:#F5A626;}
	.st480{fill:#F5A526;}
	.st481{fill:#F5A426;}
	.st482{fill:#F5A326;}
	.st483{fill:#F5A226;}
	.st484{fill:#F5A125;}
	.st485{fill:#F5A025;}
	.st486{fill:#F59F25;}
	.st487{fill:#F59E25;}
	.st488{fill:#F59D25;}
	.st489{fill:#F59C25;}
	.st490{fill:#F59B25;}
	.st491{fill:#F59A25;}
	.st492{fill:#F59925;}
	.st493{fill:#F59825;}
	.st494{fill:#F59725;}
	.st495{fill:#F59625;}
	.st496{fill:#F59525;}
	.st497{fill:#F59425;}
	.st498{fill:#F59325;}
	.st499{fill:#F59225;}
	.st500{fill:#F59125;}
	.st501{fill:#F59024;}
	.st502{fill:#F58F24;}
	.st503{fill:#F58E24;}
	.st504{fill:#F58D24;}
	.st505{fill:#F58C24;}
	.st506{fill:#F58B24;}
	.st507{fill:#F58A24;}
	.st508{fill:#F58924;}
	.st509{fill:#F58824;}
	.st510{fill:#F58724;}
	.st511{fill:#F58624;}
	.st512{fill:#F58524;}
	.st513{fill:#F58424;}
	.st514{fill:#F48324;}
	.st515{fill:#F48224;}
	.st516{fill:#F48124;}
	.st517{fill:#F48024;}
	.st518{fill:#F47F23;}
	.st519{fill:#F47E23;}
	.st520{fill:#F47D23;}
	.st521{fill:#F47C23;}
	.st522{fill:#F47B23;}
	.st523{fill:#F47A23;}
	.st524{fill:#F47923;}
	.st525{fill:#F47823;}
	.st526{fill:#F47723;}
	.st527{fill:#F47623;}
	.st528{fill:#F47523;}
	.st529{fill:#F47423;}
	.st530{fill:#F47323;}
	.st531{fill:#F47223;}
	.st532{fill:#F47123;}
	.st533{fill:#F47023;}
	.st534{fill:#F46F23;}
	.st535{fill:#F46E22;}
	.st536{fill:#F46D22;}
	.st537{fill:#F46C22;}
	.st538{fill:#F46B22;}
	.st539{fill:#F46A22;}
	.st540{fill:#F46922;}
	.st541{fill:#F46822;}
	.st542{fill:#F46722;}
	.st543{fill:#F46622;}
	.st544{fill:#F36522;}
	.st545{fill:#F36421;}
	.st546{fill:#F26321;}
	.st547{fill:#F26221;}
	.st548{fill:#F16120;}
	.st549{fill:#F06020;}
	.st550{fill:#F05F20;}
	.st551{fill:#EF5E1F;}
	.st552{fill:#EF5D1F;}
	.st553{fill:#EE5C1F;}
	.st554{fill:#ED5B1E;}
	.st555{fill:#ED5A1E;}
	.st556{fill:#EC591E;}
	.st557{fill:#EC581D;}
	.st558{fill:#EB571D;}
	.st559{fill:#EA561D;}
	.st560{fill:#EA551D;}
	.st561{fill:#E9541C;}
	.st562{fill:#E9531C;}
	.st563{fill:#E8521C;}
	.st564{fill:#E7511B;}
	.st565{fill:#E7501B;}
	.st566{fill:#E64F1B;}
	.st567{fill:#E64E1A;}
	.st568{fill:#E54D1A;}
	.st569{fill:#E44C1A;}
	.st570{fill:#E44B19;}
	.st571{fill:#E34A19;}
	.st572{fill:#E34919;}
	.st573{fill:#E24818;}
	.st574{fill:#E14718;}
	.st575{fill:#E14618;}
	.st576{fill:#E04517;}
	.st577{fill:#E04417;}
	.st578{fill:#DF4317;}
	.st579{fill:#DE4216;}
	.st580{fill:#DE4116;}
	.st581{fill:#DD4016;}
	.st582{fill:#DD3F15;}
	.st583{fill:#DC3E15;}
	.st584{fill:#DB3D15;}
	.st585{fill:#DB3C14;}
	.st586{fill:#DA3B14;}
	.st587{fill:#D93A14;}
	.st588{fill:#D93913;}
	.st589{fill:#D83813;}
	.st590{fill:#D73713;}
	.st591{fill:#D73612;}
	.st592{fill:#D63512;}
	.st593{fill:#D63412;}
	.st594{fill:#D53311;}
	.st595{fill:#D43211;}
	.st596{fill:#D43111;}
	.st597{fill:#D33010;}
	.st598{fill:#D32F10;}
	.st599{fill:#D22E10;}
	.st600{fill:#D12D0F;}
	.st601{fill:#D12C0F;}
	.st602{fill:#D02B0F;}
	.st603{fill:#D02A0E;}
	.st604{fill:#CF290E;}
	.st605{fill:#CE280E;}
	.st606{fill:#CE270D;}
	.st607{fill:#CD260D;}
	.st608{fill:#CD250D;}
	.st609{fill:#CC240C;}
	.st610{fill:#CB230C;}
	.st611{fill:#CB220C;}
	.st612{fill:#CA210B;}
	.st613{fill:#CA200B;}
	.st614{fill:#C91F0B;}
	.st615{fill:#C81E0B;}
	.st616{fill:#C81D0A;}
	.st617{fill:#C71C0A;}
	.st618{fill:#C71B0A;}
	.st619{fill:#C61A09;}
	.st620{fill:#C51909;}
	.st621{fill:#C51809;}
	.st622{fill:#C41708;}
	.st623{fill:#C41608;}
	.st624{fill:#C31508;}
	.st625{fill:#C21407;}
	.st626{fill:#C21307;}
	.st627{fill:#C11207;}
	.st628{fill:#C11106;}
	.st629{fill:#C01006;}
	.st630{fill:none;stroke:#FFFFFF;stroke-width:3;stroke-miterlimit:10;}
</style>
<g>
	<path d="M42.01,25.87c-4.24-0.18-8.61,1.41-11.81,4.4c-3.2,2.98-5.18,7.33-5.3,11.81c-0.15,4.47,1.46,9.09,4.61,12.5
		c1.57,1.7,3.52,3.07,5.68,3.97c2.16,0.9,4.52,1.31,6.83,1.24c2.31-0.09,4.6-0.72,6.59-1.81c1.99-1.1,3.67-2.62,4.95-4.36
		c2.56-3.51,3.59-7.63,3.47-11.54c-0.13-3.92-1.55-7.77-4.16-10.85C50.28,28.15,46.28,26.03,42.01,25.87z M55.34,36.56
		c0.78,1.72,1.15,3.63,1.09,5.52c-0.07,1.89-0.59,3.75-1.5,5.35c-0.92,1.6-2.2,2.94-3.64,3.92c-2.93,1.97-6.22,2.6-9.27,2.44
		c-3.08-0.18-5.98-1.37-8.3-3.41c-2.33-2.02-3.89-5.05-4.01-8.3c-0.14-3.23,1.04-6.54,3.32-8.99c2.24-2.48,5.52-4.06,8.99-4.22
		c3.45-0.18,7.1,0.86,9.96,3.25C53.38,33.32,54.55,34.84,55.34,36.56z"/>
	<path d="M75.36,34.89l-0.35-1.35l-1.26,0.05c-3.04,0.13-6.08,0.27-9.12,0.37l-0.03-0.08c-0.14-0.33-0.24-0.67-0.41-0.98l-0.59-1.17
		c2.11-2.2,4.2-4.42,6.36-6.58l0.54-0.54l-0.42-0.64c-1.3-1.98-2.81-3.81-4.48-5.48c-1.67-1.67-3.5-3.18-5.47-4.5l-0.63-0.42
		l-0.58,0.55l-3.61,3.43c-0.99,0.92-1.96,1.86-2.96,2.78c-0.37-0.19-0.73-0.38-1.1-0.57l-0.93-0.38l0.44-9.03l0.07-1.45l-1.58-0.41
		c-2.36-0.62-4.79-1.01-7.25-1.09c-2.45-0.08-4.93,0.05-7.37,0.52l-1.93,0.37l-0.05,2.08c-0.06,2.69-0.12,5.37-0.16,8.06
		c-0.09,0.03-0.17,0.06-0.26,0.11l-0.23,0.11l-2.21-2.17l-3.56-3.48l-1.53-1.49L23,12.62C20.94,14,19,15.56,17.3,17.37
		c-1.71,1.79-3.23,3.76-4.52,5.86l-1.01,1.64l1.32,1.27c2.08,2,4.2,3.95,6.31,5.91l-0.24,0.57l-0.27,0.85
		c-2.87,0.14-5.74,0.27-8.6,0.45l-1.15,0.07l-0.15,0.97c-0.35,2.37-0.48,4.76-0.3,7.12c0.09,1.18,0.23,2.35,0.45,3.51
		c0.11,0.58,0.24,1.15,0.38,1.72l0.22,0.85l0.12,0.42c0.05,0.2,0.14,0.42,0.23,0.59c2.95,0.23,6.11,0.53,9.38,0.74l0.41,1.36
		l0.41,1.03l-6.82,6.13l-1.02,0.92l0.79,1.33c2.47,4.17,5.84,7.89,9.91,10.69l1.53,1.05l1.44-1.38l5.73-5.5l0.33,0.16l0.17,0.07
		l-0.19,8.08l-0.06,2.39l2.44,0.57c4.9,1.14,10.04,1.21,15,0.18l2.53-0.53l0-2.61l0-7.53l5.39,5.25l1.8,1.75l2.03-1.34
		c4.2-2.78,7.76-6.47,10.4-10.71l1.24-1.99l-1.61-1.55L65.39,52l0.08-0.19c0.06-0.12,0.09-0.25,0.14-0.38
		c2.71-0.08,5.42-0.18,8.13-0.26l1.89-0.06l0.29-1.7C76.77,44.55,76.56,39.58,75.36,34.89z M60,65.37l-5.18-5.31l-1.54-1.58
		l-2.2,1.01l-1.57,0.72l-1.63,0.58l-2.26,0.81l0.01,2.27l0.02,7.27c-2.48,0.33-5.02,0.36-7.52,0.08l-0.17-7.35l-0.05-2.02L36,61.19
		l-1.73-0.58l-1.67-0.73l-1.95-0.85l-1.24,1.35l-5.4,5.91c-2.61-1.79-4.99-3.97-6.97-6.51l5.62-6.25l0.65-0.72l-0.42-0.76
		l-0.92-1.67l-0.77-1.76l-0.33-0.76l-0.64,0.04c-3.1,0.2-6.32,0.54-9.78,0.79c0.03-0.11,0.06-0.18,0.06-0.26l-0.04-0.43l-0.07-0.85
		c-0.04-0.57-0.06-1.13-0.07-1.7c-0.02-1.13,0-2.26,0.09-3.38c0.15-1.85,0.43-3.68,0.87-5.47c2.98,0.17,5.97,0.31,8.95,0.46
		l1.2,0.06L22,35.79l0.7-1.7l0.85-1.63l0.65-1.25l-1.01-1.08c-1.81-1.94-3.61-3.89-5.44-5.82c0.94-1.21,1.97-2.35,3.07-3.4
		c1.03-0.97,2.12-1.88,3.26-2.71l1.98,2.02l3.49,3.55l1.31,1.33l1.85-0.85l1.61-0.74c0.26-0.14,0.55-0.21,0.83-0.32l0.83-0.31
		l1.9-0.7l-0.01-1.87c-0.01-2.65-0.09-5.29-0.16-7.94c1.41-0.26,2.85-0.44,4.3-0.5c1.67-0.07,3.35-0.02,5.02,0.16l0.4,8.29
		l0.05,1.06l0.95,0.3l1.8,0.57c0.59,0.23,1.17,0.48,1.75,0.72l0.92,0.38l0.54-0.6c1.12-1.23,2.27-2.42,3.41-3.63l2.89-3.04
		c1.64,1.08,3.18,2.32,4.57,3.71c1.4,1.4,2.64,2.95,3.74,4.59c-2.18,2.15-4.41,4.25-6.61,6.38l-0.53,0.52l0.33,0.8L62,33.81
		c0.14,0.29,0.2,0.6,0.31,0.9l0.29,0.91l0.27,0.85l0.93,0.03c2.84,0.08,5.69,0.2,8.53,0.32c0.41,3.28,0.29,6.61-0.34,9.81
		c-2.73-0.1-5.46-0.2-8.2-0.26l-1.67-0.03l-0.76,1.82c-0.23,0.55-0.38,1.13-0.67,1.65l-0.77,1.6l-0.84,1.73l1.31,1.36l5.22,5.42
		C63.98,61.98,62.09,63.81,60,65.37z"/>
</g>
</svg>
